<svg xmlns="http://www.w3.org/2000/svg" xmlns:xlink="http://www.w3.org/1999/xlink" width="48" zoomAndPan="magnify" viewBox="0 0 36 36.000001" height="48" preserveAspectRatio="xMidYMid meet" version="1.0"><defs><clipPath id="6eefe97228"><path d="M 12.160156 4.910156 L 18.929688 4.910156 L 18.929688 30.289062 L 12.160156 30.289062 Z M 12.160156 4.910156 " clip-rule="nonzero"/></clipPath><clipPath id="f443b5c084"><path d="M 12.160156 8.203125 C 12.160156 6.386719 13.675781 4.910156 15.546875 4.910156 C 17.414062 4.910156 18.929688 6.386719 18.929688 8.203125 L 18.929688 26.992188 C 18.929688 28.8125 17.414062 30.289062 15.546875 30.289062 C 13.675781 30.289062 12.160156 28.8125 12.160156 26.992188 Z M 12.160156 8.203125 " clip-rule="nonzero"/></clipPath><clipPath id="52b7907e04"><path d="M 23.253906 4.910156 L 30.019531 4.910156 L 30.019531 30.289062 L 23.253906 30.289062 Z M 23.253906 4.910156 " clip-rule="nonzero"/></clipPath><clipPath id="3cb8729ff6"><path d="M 23.253906 8.203125 C 23.253906 6.386719 24.765625 4.910156 26.636719 4.910156 C 28.503906 4.910156 30.019531 6.386719 30.019531 8.203125 L 30.019531 26.992188 C 30.019531 28.8125 28.503906 30.289062 26.636719 30.289062 C 24.765625 30.289062 23.253906 28.8125 23.253906 26.992188 Z M 23.253906 8.203125 " clip-rule="nonzero"/></clipPath><clipPath id="843e69cad2"><path d="M 12 4 L 31 4 L 31 31 L 12 31 Z M 12 4 " clip-rule="nonzero"/></clipPath><clipPath id="375a3cb77d"><path d="M 10.996094 28.144531 L 25.367188 3.210938 L 31.230469 6.589844 L 16.859375 31.523438 Z M 10.996094 28.144531 " clip-rule="nonzero"/></clipPath><clipPath id="0f5ac2cf48"><path d="M 23.722656 6.066406 C 24.628906 4.488281 26.679688 3.964844 28.300781 4.898438 C 29.917969 5.832031 30.492188 7.867188 29.585938 9.445312 L 18.503906 28.667969 C 17.597656 30.246094 15.546875 30.765625 13.925781 29.835938 C 12.308594 28.902344 11.734375 26.867188 12.640625 25.289062 Z M 23.722656 6.066406 " clip-rule="nonzero"/></clipPath><clipPath id="6912ffb23f"><path d="M 23 15 L 35 15 L 35 31 L 23 31 Z M 23 15 " clip-rule="nonzero"/></clipPath><clipPath id="f3902f77e0"><path d="M 22.011719 28.144531 L 30.246094 13.863281 L 36.109375 17.242188 L 27.875 31.523438 Z M 22.011719 28.144531 " clip-rule="nonzero"/></clipPath><clipPath id="29f92eea7b"><path d="M 28.601562 16.714844 C 29.507812 15.140625 31.558594 14.617188 33.175781 15.550781 C 34.796875 16.484375 35.371094 18.519531 34.460938 20.09375 L 29.519531 28.667969 C 28.613281 30.246094 26.5625 30.769531 24.945312 29.835938 C 23.324219 28.902344 22.75 26.867188 23.65625 25.289062 Z M 28.601562 16.714844 " clip-rule="nonzero"/></clipPath><clipPath id="0127808785"><path d="M 1 4 L 19 4 L 19 31 L 1 31 Z M 1 4 " clip-rule="nonzero"/></clipPath><clipPath id="bff1c70663"><path d="M -0.109375 28.144531 L 14.261719 3.210938 L 20.125 6.589844 L 5.753906 31.523438 Z M -0.109375 28.144531 " clip-rule="nonzero"/></clipPath><clipPath id="7119f50ff1"><path d="M 12.617188 6.066406 C 13.527344 4.488281 15.574219 3.964844 17.195312 4.898438 C 18.8125 5.832031 19.390625 7.867188 18.480469 9.445312 L 7.402344 28.667969 C 6.492188 30.246094 4.441406 30.765625 2.824219 29.835938 C 1.203125 28.902344 0.628906 26.867188 1.539062 25.289062 Z M 12.617188 6.066406 " clip-rule="nonzero"/></clipPath></defs><g clip-path="url(#6eefe97228)"><g clip-path="url(#f443b5c084)"><path fill="#737373" d="M 12.160156 30.289062 L 12.160156 4.910156 L 18.929688 4.910156 L 18.929688 30.289062 Z M 12.160156 30.289062 " fill-opacity="1" fill-rule="nonzero"/></g></g><g clip-path="url(#52b7907e04)"><g clip-path="url(#3cb8729ff6)"><path fill="#2ea24e" d="M 23.253906 30.289062 L 23.253906 4.910156 L 30.019531 4.910156 L 30.019531 30.289062 Z M 23.253906 30.289062 " fill-opacity="1" fill-rule="nonzero"/></g></g><g clip-path="url(#843e69cad2)"><g clip-path="url(#375a3cb77d)"><g clip-path="url(#0f5ac2cf48)"><path fill="#e43f2b" d="M 10.996094 28.144531 L 25.367188 3.210938 L 31.230469 6.589844 L 16.859375 31.523438 Z M 10.996094 28.144531 " fill-opacity="1" fill-rule="nonzero"/></g></g></g><g clip-path="url(#6912ffb23f)"><g clip-path="url(#f3902f77e0)"><g clip-path="url(#29f92eea7b)"><path fill="#efb509" d="M 22.011719 28.144531 L 30.246094 13.863281 L 36.109375 17.242188 L 27.875 31.523438 Z M 22.011719 28.144531 " fill-opacity="1" fill-rule="nonzero"/></g></g></g><g clip-path="url(#0127808785)"><g clip-path="url(#bff1c70663)"><g clip-path="url(#7119f50ff1)"><path fill="#3e7dec" d="M -0.109375 28.144531 L 14.261719 3.210938 L 20.125 6.589844 L 5.753906 31.523438 Z M -0.109375 28.144531 " fill-opacity="1" fill-rule="nonzero"/></g></g></g></svg>