<svg xmlns="http://www.w3.org/2000/svg" xmlns:xlink="http://www.w3.org/1999/xlink" width="1080" zoomAndPan="magnify" viewBox="0 0 810 809.999993" height="1080" preserveAspectRatio="xMidYMid meet" version="1.0"><defs><clipPath id="3aa561d8a0"><path d="M 269.988281 113.90625 L 426.738281 113.90625 L 426.738281 700.394531 L 269.988281 700.394531 Z M 269.988281 113.90625 " clip-rule="nonzero"/></clipPath><clipPath id="903af7852c"><path d="M 269.988281 189.757812 C 269.988281 147.675781 305.015625 113.558594 348.226562 113.558594 C 391.4375 113.558594 426.46875 147.675781 426.46875 189.757812 L 426.46875 624.195312 C 426.46875 666.277344 391.4375 700.394531 348.226562 700.394531 C 305.015625 700.394531 269.988281 666.277344 269.988281 624.195312 Z M 269.988281 189.757812 " clip-rule="nonzero"/></clipPath><clipPath id="fea46a6a6c"><path d="M 526.46875 113.90625 L 683 113.90625 L 683 700.394531 L 526.46875 700.394531 Z M 526.46875 113.90625 " clip-rule="nonzero"/></clipPath><clipPath id="7cc49a8387"><path d="M 526.46875 189.757812 C 526.46875 147.675781 561.496094 113.558594 604.707031 113.558594 C 647.917969 113.558594 682.949219 147.675781 682.949219 189.757812 L 682.949219 624.195312 C 682.949219 666.277344 647.917969 700.394531 604.707031 700.394531 C 561.496094 700.394531 526.46875 666.277344 526.46875 624.195312 Z M 526.46875 189.757812 " clip-rule="nonzero"/></clipPath><clipPath id="4783f314f9"><path d="M 271 102 L 683 102 L 683 701 L 271 701 Z M 271 102 " clip-rule="nonzero"/></clipPath><clipPath id="a42136188b"><path d="M 243.035156 650.847656 L 575.375 74.238281 L 710.957031 152.382812 L 378.617188 728.992188 Z M 243.035156 650.847656 " clip-rule="nonzero"/></clipPath><clipPath id="ee15aa6aae"><path d="M 537.324219 140.261719 C 558.339844 103.796875 605.726562 91.734375 643.167969 113.3125 C 680.605469 134.890625 693.921875 181.945312 672.90625 218.40625 L 416.671875 662.972656 C 395.65625 699.433594 348.265625 711.5 310.828125 689.921875 C 273.386719 668.34375 260.074219 621.289062 281.089844 584.828125 Z M 537.324219 140.261719 " clip-rule="nonzero"/></clipPath><clipPath id="d8093c8b30"><path d="M 525 348 L 796 348 L 796 701 L 525 701 Z M 525 348 " clip-rule="nonzero"/></clipPath><clipPath id="770cd44166"><path d="M 497.792969 650.851562 L 688.167969 320.542969 L 823.75 398.6875 L 633.375 728.996094 Z M 497.792969 650.851562 " clip-rule="nonzero"/></clipPath><clipPath id="296e666657"><path d="M 650.117188 386.566406 C 671.132812 350.101562 718.519531 338.035156 755.960938 359.617188 C 793.398438 381.195312 806.714844 428.246094 785.699219 464.710938 L 671.425781 662.972656 C 650.410156 699.433594 603.023438 711.5 565.582031 689.921875 C 528.144531 668.34375 514.828125 621.289062 535.84375 584.828125 Z M 650.117188 386.566406 " clip-rule="nonzero"/></clipPath><clipPath id="7d32d59496"><path d="M 14 102 L 427 102 L 427 701 L 14 701 Z M 14 102 " clip-rule="nonzero"/></clipPath><clipPath id="1a8f0f7ecf"><path d="M -13.746094 650.847656 L 318.589844 74.238281 L 454.171875 152.382812 L 121.832031 728.992188 Z M -13.746094 650.847656 " clip-rule="nonzero"/></clipPath><clipPath id="730088ab3e"><path d="M 280.539062 140.261719 C 301.554688 103.796875 348.941406 91.734375 386.382812 113.3125 C 423.820312 134.890625 437.136719 181.945312 416.121094 218.40625 L 159.886719 662.972656 C 138.871094 699.433594 91.480469 711.5 54.042969 689.921875 C 16.601562 668.34375 3.289062 621.289062 24.304688 584.828125 Z M 280.539062 140.261719 " clip-rule="nonzero"/></clipPath><clipPath id="60b588c15e"><path d="M 625.789062 486.4375 L 796.039062 486.4375 L 796.039062 656.6875 L 625.789062 656.6875 Z M 625.789062 486.4375 " clip-rule="nonzero"/></clipPath></defs><g clip-path="url(#3aa561d8a0)"><g clip-path="url(#903af7852c)"><path stroke-linecap="butt" transform="matrix(0, -0.75, 0.75, 0, 269.986543, 700.392705)" fill="none" stroke-linejoin="miter" d="M 680.846601 0.00231804 C 736.955982 0.00231804 782.445571 46.705448 782.445571 104.320038 C 782.445571 161.934628 736.955982 208.642967 680.846601 208.642967 L 101.596535 208.642967 C 45.487153 208.642967 -0.00243531 161.934628 -0.00243531 104.320038 C -0.00243531 46.705448 45.487153 0.00231804 101.596535 0.00231804 Z M 680.846601 0.00231804 " stroke="#000000" stroke-width="36" stroke-opacity="1" stroke-miterlimit="4"/></g></g><g clip-path="url(#fea46a6a6c)"><g clip-path="url(#7cc49a8387)"><path stroke-linecap="butt" transform="matrix(0, -0.75, 0.75, 0, 526.468105, 700.392705)" fill="none" stroke-linejoin="miter" d="M 680.846601 0.000859981 C 736.955982 0.000859981 782.445571 46.70399 782.445571 104.31858 C 782.445571 161.93317 736.955982 208.641509 680.846601 208.641509 L 101.596535 208.641509 C 45.487153 208.641509 -0.00243531 161.93317 -0.00243531 104.31858 C -0.00243531 46.70399 45.487153 0.000859981 101.596535 0.000859981 Z M 680.846601 0.000859981 " stroke="#000000" stroke-width="36" stroke-opacity="1" stroke-miterlimit="4"/></g></g><g clip-path="url(#4783f314f9)"><g clip-path="url(#a42136188b)"><g clip-path="url(#ee15aa6aae)"><path fill="#000000" d="M 243.035156 650.847656 L 575.375 74.238281 L 710.957031 152.382812 L 378.617188 728.992188 Z M 243.035156 650.847656 " fill-opacity="1" fill-rule="nonzero"/></g></g></g><g clip-path="url(#d8093c8b30)"><g clip-path="url(#770cd44166)"><g clip-path="url(#296e666657)"><path fill="#000000" d="M 497.792969 650.851562 L 688.167969 320.542969 L 823.75 398.6875 L 633.375 728.996094 Z M 497.792969 650.851562 " fill-opacity="1" fill-rule="nonzero"/></g></g></g><g clip-path="url(#7d32d59496)"><g clip-path="url(#1a8f0f7ecf)"><g clip-path="url(#730088ab3e)"><path fill="#000000" d="M -13.746094 650.847656 L 318.589844 74.238281 L 454.171875 152.382812 L 121.832031 728.992188 Z M -13.746094 650.847656 " fill-opacity="1" fill-rule="nonzero"/></g></g></g><g clip-path="url(#60b588c15e)"><path fill="#e43f2b" d="M 710.953125 656.769531 C 663.992188 656.769531 625.789062 618.5625 625.789062 571.601562 C 625.789062 524.640625 663.992188 486.4375 710.953125 486.4375 C 757.914062 486.4375 796.121094 524.640625 796.121094 571.601562 C 796.121094 618.5625 757.914062 656.769531 710.953125 656.769531 Z M 710.953125 656.769531 " fill-opacity="1" fill-rule="nonzero"/></g><path fill="#000000" d="M 687.332031 594.195312 C 686.070312 594.195312 684.796875 593.796875 683.71875 592.96875 L 662.265625 576.550781 C 660.8125 575.4375 659.953125 573.71875 659.929688 571.890625 C 659.910156 570.0625 660.730469 568.324219 662.160156 567.179688 L 683.167969 550.316406 C 685.734375 548.257812 689.480469 548.671875 691.539062 551.234375 C 693.597656 553.800781 693.1875 557.546875 690.621094 559.605469 L 675.539062 571.710938 L 690.957031 583.515625 C 693.570312 585.511719 694.066406 589.25 692.066406 591.859375 C 690.894531 593.394531 689.121094 594.195312 687.332031 594.195312 Z M 687.332031 594.195312 " fill-opacity="1" fill-rule="nonzero"/><path fill="#000000" d="M 734.574219 594.195312 C 732.785156 594.195312 731.015625 593.394531 729.84375 591.859375 C 727.84375 589.25 728.339844 585.511719 730.953125 583.515625 L 746.371094 571.710938 L 731.285156 559.605469 C 728.722656 557.546875 728.308594 553.800781 730.371094 551.234375 C 732.429688 548.671875 736.175781 548.257812 738.742188 550.316406 L 759.75 567.179688 C 761.179688 568.324219 762 570.0625 761.976562 571.890625 C 761.957031 573.722656 761.09375 575.4375 759.640625 576.550781 L 738.191406 592.96875 C 737.109375 593.796875 735.839844 594.195312 734.574219 594.195312 Z M 734.574219 594.195312 " fill-opacity="1" fill-rule="nonzero"/><path fill="#000000" d="M 701.273438 605.597656 C 700.757812 605.597656 700.234375 605.527344 699.710938 605.386719 C 696.539062 604.527344 694.660156 601.257812 695.519531 598.082031 L 710.722656 542.003906 C 711.585938 538.828125 714.855469 536.953125 718.03125 537.816406 C 721.203125 538.675781 723.078125 541.945312 722.21875 545.121094 L 707.015625 601.199219 C 706.296875 603.851562 703.894531 605.59375 701.273438 605.59375 Z M 701.273438 605.597656 " fill-opacity="1" fill-rule="nonzero"/></svg>