<svg xmlns="http://www.w3.org/2000/svg" xmlns:xlink="http://www.w3.org/1999/xlink" width="100" zoomAndPan="magnify" viewBox="0 0 75 37.5" height="50" preserveAspectRatio="xMidYMid meet" version="1.0"><defs><g/><clipPath id="24b1fb384a"><path d="M 9.617188 10.582031 L 13.914062 10.582031 L 13.914062 26.703125 L 9.617188 26.703125 Z M 9.617188 10.582031 " clip-rule="nonzero"/></clipPath><clipPath id="98df3e1644"><path d="M 9.617188 12.675781 C 9.617188 11.519531 10.578125 10.582031 11.765625 10.582031 C 12.953125 10.582031 13.914062 11.519531 13.914062 12.675781 L 13.914062 24.609375 C 13.914062 25.765625 12.953125 26.703125 11.765625 26.703125 C 10.578125 26.703125 9.617188 25.765625 9.617188 24.609375 Z M 9.617188 12.675781 " clip-rule="nonzero"/></clipPath><clipPath id="e00a80b684"><path d="M 16.660156 10.582031 L 20.960938 10.582031 L 20.960938 26.703125 L 16.660156 26.703125 Z M 16.660156 10.582031 " clip-rule="nonzero"/></clipPath><clipPath id="6354d645ac"><path d="M 16.660156 12.675781 C 16.660156 11.519531 17.625 10.582031 18.808594 10.582031 C 19.996094 10.582031 20.960938 11.519531 20.960938 12.675781 L 20.960938 24.609375 C 20.960938 25.765625 19.996094 26.703125 18.808594 26.703125 C 17.625 26.703125 16.660156 25.765625 16.660156 24.609375 Z M 16.660156 12.675781 " clip-rule="nonzero"/></clipPath><clipPath id="3e589cf129"><path d="M 9 10 L 21 10 L 21 27 L 9 27 Z M 9 10 " clip-rule="nonzero"/></clipPath><clipPath id="9b0b5f1198"><path d="M 8.878906 25.34375 L 18.007812 9.507812 L 21.730469 11.652344 L 12.601562 27.488281 Z M 8.878906 25.34375 " clip-rule="nonzero"/></clipPath><clipPath id="17cbfdd1a5"><path d="M 16.960938 11.320312 C 17.539062 10.316406 18.839844 9.988281 19.871094 10.578125 C 20.898438 11.171875 21.261719 12.464844 20.6875 13.464844 L 13.648438 25.675781 C 13.070312 26.679688 11.769531 27.007812 10.742188 26.417969 C 9.710938 25.824219 9.347656 24.53125 9.925781 23.53125 Z M 16.960938 11.320312 " clip-rule="nonzero"/></clipPath><clipPath id="dbbc20ad3a"><path d="M 16 17 L 25 17 L 25 27 L 16 27 Z M 16 17 " clip-rule="nonzero"/></clipPath><clipPath id="ee11ff7663"><path d="M 15.875 25.34375 L 21.105469 16.273438 L 24.828125 18.417969 L 19.601562 27.492188 Z M 15.875 25.34375 " clip-rule="nonzero"/></clipPath><clipPath id="b3d22ea730"><path d="M 20.0625 18.085938 C 20.636719 17.085938 21.941406 16.753906 22.96875 17.34375 C 23.996094 17.9375 24.363281 19.230469 23.785156 20.230469 L 20.644531 25.675781 C 20.070312 26.679688 18.765625 27.011719 17.738281 26.417969 C 16.710938 25.824219 16.34375 24.53125 16.921875 23.53125 Z M 20.0625 18.085938 " clip-rule="nonzero"/></clipPath><clipPath id="08679617e3"><path d="M 2 10 L 14 10 L 14 27 L 2 27 Z M 2 10 " clip-rule="nonzero"/></clipPath><clipPath id="d9cefa3aed"><path d="M 1.824219 25.34375 L 10.953125 9.507812 L 14.679688 11.652344 L 5.550781 27.488281 Z M 1.824219 25.34375 " clip-rule="nonzero"/></clipPath><clipPath id="501950119f"><path d="M 9.910156 11.320312 C 10.484375 10.316406 11.789062 9.988281 12.816406 10.578125 C 13.84375 11.171875 14.210938 12.464844 13.632812 13.464844 L 6.59375 25.675781 C 6.019531 26.679688 4.714844 27.007812 3.6875 26.417969 C 2.660156 25.824219 2.292969 24.53125 2.871094 23.53125 Z M 9.910156 11.320312 " clip-rule="nonzero"/></clipPath></defs><g clip-path="url(#24b1fb384a)"><g clip-path="url(#98df3e1644)"><path fill="#737373" d="M 9.617188 26.703125 L 9.617188 10.582031 L 13.914062 10.582031 L 13.914062 26.703125 Z M 9.617188 26.703125 " fill-opacity="1" fill-rule="nonzero"/></g></g><g clip-path="url(#e00a80b684)"><g clip-path="url(#6354d645ac)"><path fill="#2ea24e" d="M 16.660156 26.703125 L 16.660156 10.582031 L 20.960938 10.582031 L 20.960938 26.703125 Z M 16.660156 26.703125 " fill-opacity="1" fill-rule="nonzero"/></g></g><g clip-path="url(#3e589cf129)"><g clip-path="url(#9b0b5f1198)"><g clip-path="url(#17cbfdd1a5)"><path fill="#e43f2b" d="M 8.878906 25.34375 L 18.007812 9.507812 L 21.730469 11.652344 L 12.601562 27.488281 Z M 8.878906 25.34375 " fill-opacity="1" fill-rule="nonzero"/></g></g></g><g clip-path="url(#dbbc20ad3a)"><g clip-path="url(#ee11ff7663)"><g clip-path="url(#b3d22ea730)"><path fill="#efb509" d="M 15.875 25.34375 L 21.105469 16.273438 L 24.828125 18.417969 L 19.601562 27.492188 Z M 15.875 25.34375 " fill-opacity="1" fill-rule="nonzero"/></g></g></g><g clip-path="url(#08679617e3)"><g clip-path="url(#d9cefa3aed)"><g clip-path="url(#501950119f)"><path fill="#3e7dec" d="M 1.824219 25.34375 L 10.953125 9.507812 L 14.679688 11.652344 L 5.550781 27.488281 Z M 1.824219 25.34375 " fill-opacity="1" fill-rule="nonzero"/></g></g></g><g fill="#6b7280" fill-opacity="1"><g transform="translate(27.501361, 16.816457)"><g><path d="M 0.34375 -2.796875 C 0.34375 -3.347656 0.460938 -3.84375 0.703125 -4.28125 C 0.953125 -4.71875 1.289062 -5.054688 1.71875 -5.296875 C 2.144531 -5.546875 2.617188 -5.671875 3.140625 -5.671875 C 3.753906 -5.671875 4.285156 -5.519531 4.734375 -5.21875 C 5.191406 -4.925781 5.523438 -4.507812 5.734375 -3.96875 L 4.859375 -3.96875 C 4.703125 -4.3125 4.476562 -4.570312 4.1875 -4.75 C 3.894531 -4.9375 3.546875 -5.03125 3.140625 -5.03125 C 2.742188 -5.03125 2.390625 -4.9375 2.078125 -4.75 C 1.773438 -4.570312 1.535156 -4.316406 1.359375 -3.984375 C 1.179688 -3.648438 1.09375 -3.253906 1.09375 -2.796875 C 1.09375 -2.359375 1.179688 -1.96875 1.359375 -1.625 C 1.535156 -1.289062 1.773438 -1.035156 2.078125 -0.859375 C 2.390625 -0.679688 2.742188 -0.59375 3.140625 -0.59375 C 3.546875 -0.59375 3.894531 -0.679688 4.1875 -0.859375 C 4.476562 -1.035156 4.703125 -1.289062 4.859375 -1.625 L 5.734375 -1.625 C 5.523438 -1.09375 5.191406 -0.679688 4.734375 -0.390625 C 4.285156 -0.0976562 3.753906 0.046875 3.140625 0.046875 C 2.617188 0.046875 2.144531 -0.0703125 1.71875 -0.3125 C 1.289062 -0.5625 0.953125 -0.898438 0.703125 -1.328125 C 0.460938 -1.765625 0.34375 -2.253906 0.34375 -2.796875 Z M 0.34375 -2.796875 "/></g></g></g><g fill="#6b7280" fill-opacity="1"><g transform="translate(33.700255, 16.816457)"><g><path d="M 4.640625 -2.375 C 4.640625 -2.226562 4.628906 -2.078125 4.609375 -1.921875 L 1.09375 -1.921875 C 1.113281 -1.492188 1.257812 -1.15625 1.53125 -0.90625 C 1.800781 -0.664062 2.128906 -0.546875 2.515625 -0.546875 C 2.835938 -0.546875 3.101562 -0.617188 3.3125 -0.765625 C 3.519531 -0.910156 3.671875 -1.109375 3.765625 -1.359375 L 4.546875 -1.359375 C 4.429688 -0.929688 4.195312 -0.582031 3.84375 -0.3125 C 3.488281 -0.0507812 3.046875 0.078125 2.515625 0.078125 C 2.097656 0.078125 1.722656 -0.015625 1.390625 -0.203125 C 1.066406 -0.390625 0.8125 -0.65625 0.625 -1 C 0.4375 -1.351562 0.34375 -1.753906 0.34375 -2.203125 C 0.34375 -2.660156 0.429688 -3.0625 0.609375 -3.40625 C 0.796875 -3.75 1.050781 -4.007812 1.375 -4.1875 C 1.707031 -4.375 2.085938 -4.46875 2.515625 -4.46875 C 2.929688 -4.46875 3.300781 -4.375 3.625 -4.1875 C 3.945312 -4.007812 4.195312 -3.757812 4.375 -3.4375 C 4.550781 -3.125 4.640625 -2.769531 4.640625 -2.375 Z M 3.875 -2.515625 C 3.875 -2.796875 3.8125 -3.035156 3.6875 -3.234375 C 3.570312 -3.441406 3.40625 -3.597656 3.1875 -3.703125 C 2.976562 -3.804688 2.742188 -3.859375 2.484375 -3.859375 C 2.117188 -3.859375 1.804688 -3.738281 1.546875 -3.5 C 1.285156 -3.257812 1.132812 -2.929688 1.09375 -2.515625 Z M 3.875 -2.515625 "/></g></g></g><g fill="#6b7280" fill-opacity="1"><g transform="translate(38.678644, 16.816457)"><g><path d="M 2.765625 -4.484375 C 3.296875 -4.484375 3.726562 -4.320312 4.0625 -4 C 4.394531 -3.675781 4.5625 -3.207031 4.5625 -2.59375 L 4.5625 0 L 3.84375 0 L 3.84375 -2.484375 C 3.84375 -2.921875 3.734375 -3.253906 3.515625 -3.484375 C 3.296875 -3.722656 2.992188 -3.84375 2.609375 -3.84375 C 2.222656 -3.84375 1.914062 -3.722656 1.6875 -3.484375 C 1.457031 -3.242188 1.34375 -2.894531 1.34375 -2.4375 L 1.34375 0 L 0.625 0 L 0.625 -4.40625 L 1.34375 -4.40625 L 1.34375 -3.78125 C 1.488281 -4 1.6875 -4.171875 1.9375 -4.296875 C 2.1875 -4.421875 2.460938 -4.484375 2.765625 -4.484375 Z M 2.765625 -4.484375 "/></g></g></g><g fill="#6b7280" fill-opacity="1"><g transform="translate(43.817623, 16.816457)"><g><path d="M 1.515625 -3.796875 L 1.515625 -1.203125 C 1.515625 -0.992188 1.554688 -0.84375 1.640625 -0.75 C 1.734375 -0.664062 1.894531 -0.625 2.125 -0.625 L 2.65625 -0.625 L 2.65625 0 L 2 0 C 1.59375 0 1.285156 -0.09375 1.078125 -0.28125 C 0.878906 -0.46875 0.78125 -0.773438 0.78125 -1.203125 L 0.78125 -3.796875 L 0.203125 -3.796875 L 0.203125 -4.40625 L 0.78125 -4.40625 L 0.78125 -5.515625 L 1.515625 -5.515625 L 1.515625 -4.40625 L 2.65625 -4.40625 L 2.65625 -3.796875 Z M 1.515625 -3.796875 "/></g></g></g><g fill="#6b7280" fill-opacity="1"><g transform="translate(46.74042, 16.816457)"><g><path d="M 1.34375 -3.6875 C 1.476562 -3.9375 1.660156 -4.128906 1.890625 -4.265625 C 2.128906 -4.410156 2.421875 -4.484375 2.765625 -4.484375 L 2.765625 -3.71875 L 2.578125 -3.71875 C 1.753906 -3.71875 1.34375 -3.273438 1.34375 -2.390625 L 1.34375 0 L 0.625 0 L 0.625 -4.40625 L 1.34375 -4.40625 Z M 1.34375 -3.6875 "/></g></g></g><g fill="#6b7280" fill-opacity="1"><g transform="translate(49.735482, 16.816457)"><g><path d="M 0.34375 -2.21875 C 0.34375 -2.664062 0.429688 -3.054688 0.609375 -3.390625 C 0.796875 -3.734375 1.046875 -4 1.359375 -4.1875 C 1.679688 -4.375 2.039062 -4.46875 2.4375 -4.46875 C 2.820312 -4.46875 3.15625 -4.382812 3.4375 -4.21875 C 3.71875 -4.050781 3.929688 -3.84375 4.078125 -3.59375 L 4.078125 -4.40625 L 4.8125 -4.40625 L 4.8125 0 L 4.078125 0 L 4.078125 -0.8125 C 3.929688 -0.5625 3.710938 -0.347656 3.421875 -0.171875 C 3.140625 -0.00390625 2.804688 0.078125 2.421875 0.078125 C 2.035156 0.078125 1.679688 -0.015625 1.359375 -0.203125 C 1.046875 -0.398438 0.796875 -0.671875 0.609375 -1.015625 C 0.429688 -1.367188 0.34375 -1.769531 0.34375 -2.21875 Z M 4.078125 -2.203125 C 4.078125 -2.535156 4.007812 -2.828125 3.875 -3.078125 C 3.738281 -3.328125 3.554688 -3.515625 3.328125 -3.640625 C 3.097656 -3.773438 2.847656 -3.84375 2.578125 -3.84375 C 2.304688 -3.84375 2.054688 -3.773438 1.828125 -3.640625 C 1.609375 -3.515625 1.429688 -3.328125 1.296875 -3.078125 C 1.160156 -2.835938 1.09375 -2.550781 1.09375 -2.21875 C 1.09375 -1.875 1.160156 -1.578125 1.296875 -1.328125 C 1.429688 -1.085938 1.609375 -0.898438 1.828125 -0.765625 C 2.054688 -0.628906 2.304688 -0.5625 2.578125 -0.5625 C 2.847656 -0.5625 3.097656 -0.628906 3.328125 -0.765625 C 3.554688 -0.898438 3.738281 -1.085938 3.875 -1.328125 C 4.007812 -1.578125 4.078125 -1.867188 4.078125 -2.203125 Z M 4.078125 -2.203125 "/></g></g></g><g fill="#6b7280" fill-opacity="1"><g transform="translate(55.163529, 16.816457)"><g><path d="M 1.34375 -5.9375 L 1.34375 0 L 0.625 0 L 0.625 -5.9375 Z M 1.34375 -5.9375 "/></g></g></g><g fill="#6b7280" fill-opacity="1"><g transform="translate(57.138821, 16.816457)"><g><path d="M 1 -5.109375 C 0.851562 -5.109375 0.734375 -5.15625 0.640625 -5.25 C 0.546875 -5.351562 0.5 -5.472656 0.5 -5.609375 C 0.5 -5.753906 0.546875 -5.875 0.640625 -5.96875 C 0.734375 -6.0625 0.851562 -6.109375 1 -6.109375 C 1.132812 -6.109375 1.25 -6.0625 1.34375 -5.96875 C 1.4375 -5.875 1.484375 -5.753906 1.484375 -5.609375 C 1.484375 -5.472656 1.4375 -5.351562 1.34375 -5.25 C 1.25 -5.15625 1.132812 -5.109375 1 -5.109375 Z M 1.34375 -4.40625 L 1.34375 0 L 0.625 0 L 0.625 -4.40625 Z M 1.34375 -4.40625 "/></g></g></g><g fill="#6b7280" fill-opacity="1"><g transform="translate(59.114113, 16.816457)"><g><path d="M 1.171875 -0.609375 L 3.328125 -0.609375 L 3.328125 0 L 0.328125 0 L 0.328125 -0.609375 L 2.46875 -3.8125 L 0.34375 -3.8125 L 0.34375 -4.40625 L 3.3125 -4.40625 L 3.3125 -3.8125 Z M 1.171875 -0.609375 "/></g></g></g><g fill="#6b7280" fill-opacity="1"><g transform="translate(62.767603, 16.816457)"><g><path d="M 4.640625 -2.375 C 4.640625 -2.226562 4.628906 -2.078125 4.609375 -1.921875 L 1.09375 -1.921875 C 1.113281 -1.492188 1.257812 -1.15625 1.53125 -0.90625 C 1.800781 -0.664062 2.128906 -0.546875 2.515625 -0.546875 C 2.835938 -0.546875 3.101562 -0.617188 3.3125 -0.765625 C 3.519531 -0.910156 3.671875 -1.109375 3.765625 -1.359375 L 4.546875 -1.359375 C 4.429688 -0.929688 4.195312 -0.582031 3.84375 -0.3125 C 3.488281 -0.0507812 3.046875 0.078125 2.515625 0.078125 C 2.097656 0.078125 1.722656 -0.015625 1.390625 -0.203125 C 1.066406 -0.390625 0.8125 -0.65625 0.625 -1 C 0.4375 -1.351562 0.34375 -1.753906 0.34375 -2.203125 C 0.34375 -2.660156 0.429688 -3.0625 0.609375 -3.40625 C 0.796875 -3.75 1.050781 -4.007812 1.375 -4.1875 C 1.707031 -4.375 2.085938 -4.46875 2.515625 -4.46875 C 2.929688 -4.46875 3.300781 -4.375 3.625 -4.1875 C 3.945312 -4.007812 4.195312 -3.757812 4.375 -3.4375 C 4.550781 -3.125 4.640625 -2.769531 4.640625 -2.375 Z M 3.875 -2.515625 C 3.875 -2.796875 3.8125 -3.035156 3.6875 -3.234375 C 3.570312 -3.441406 3.40625 -3.597656 3.1875 -3.703125 C 2.976562 -3.804688 2.742188 -3.859375 2.484375 -3.859375 C 2.117188 -3.859375 1.804688 -3.738281 1.546875 -3.5 C 1.285156 -3.257812 1.132812 -2.929688 1.09375 -2.515625 Z M 3.875 -2.515625 "/></g></g></g><g fill="#6b7280" fill-opacity="1"><g transform="translate(67.745992, 16.816457)"><g><path d="M 0.34375 -2.21875 C 0.34375 -2.664062 0.429688 -3.054688 0.609375 -3.390625 C 0.796875 -3.734375 1.046875 -4 1.359375 -4.1875 C 1.679688 -4.375 2.039062 -4.46875 2.4375 -4.46875 C 2.78125 -4.46875 3.097656 -4.390625 3.390625 -4.234375 C 3.691406 -4.078125 3.921875 -3.867188 4.078125 -3.609375 L 4.078125 -5.9375 L 4.8125 -5.9375 L 4.8125 0 L 4.078125 0 L 4.078125 -0.828125 C 3.929688 -0.566406 3.710938 -0.347656 3.421875 -0.171875 C 3.140625 -0.00390625 2.8125 0.078125 2.4375 0.078125 C 2.039062 0.078125 1.679688 -0.015625 1.359375 -0.203125 C 1.046875 -0.398438 0.796875 -0.671875 0.609375 -1.015625 C 0.429688 -1.367188 0.34375 -1.769531 0.34375 -2.21875 Z M 4.078125 -2.203125 C 4.078125 -2.535156 4.007812 -2.828125 3.875 -3.078125 C 3.738281 -3.328125 3.554688 -3.515625 3.328125 -3.640625 C 3.097656 -3.773438 2.847656 -3.84375 2.578125 -3.84375 C 2.304688 -3.84375 2.054688 -3.773438 1.828125 -3.640625 C 1.609375 -3.515625 1.429688 -3.328125 1.296875 -3.078125 C 1.160156 -2.835938 1.09375 -2.550781 1.09375 -2.21875 C 1.09375 -1.875 1.160156 -1.578125 1.296875 -1.328125 C 1.429688 -1.085938 1.609375 -0.898438 1.828125 -0.765625 C 2.054688 -0.628906 2.304688 -0.5625 2.578125 -0.5625 C 2.847656 -0.5625 3.097656 -0.628906 3.328125 -0.765625 C 3.554688 -0.898438 3.738281 -1.085938 3.875 -1.328125 C 4.007812 -1.578125 4.078125 -1.867188 4.078125 -2.203125 Z M 4.078125 -2.203125 "/></g></g></g><g fill="#2563eb" fill-opacity="1"><g transform="translate(27.490068, 25.009815)"><g><path d="M 6.296875 -5.5625 L 6.296875 0 L 5.5625 0 L 5.5625 -4.140625 L 3.71875 0 L 3.203125 0 L 1.34375 -4.15625 L 1.34375 0 L 0.625 0 L 0.625 -5.5625 L 1.40625 -5.5625 L 3.46875 -0.96875 L 5.515625 -5.5625 Z M 6.296875 -5.5625 "/></g></g></g><g fill="#ef4444" fill-opacity="1"><g transform="translate(34.408963, 25.009815)"><g><path d="M 0.34375 -2.21875 C 0.34375 -2.664062 0.429688 -3.054688 0.609375 -3.390625 C 0.796875 -3.734375 1.046875 -4 1.359375 -4.1875 C 1.679688 -4.375 2.039062 -4.46875 2.4375 -4.46875 C 2.820312 -4.46875 3.15625 -4.382812 3.4375 -4.21875 C 3.71875 -4.050781 3.929688 -3.84375 4.078125 -3.59375 L 4.078125 -4.40625 L 4.8125 -4.40625 L 4.8125 0 L 4.078125 0 L 4.078125 -0.8125 C 3.929688 -0.5625 3.710938 -0.347656 3.421875 -0.171875 C 3.140625 -0.00390625 2.804688 0.078125 2.421875 0.078125 C 2.035156 0.078125 1.679688 -0.015625 1.359375 -0.203125 C 1.046875 -0.398438 0.796875 -0.671875 0.609375 -1.015625 C 0.429688 -1.367188 0.34375 -1.769531 0.34375 -2.21875 Z M 4.078125 -2.203125 C 4.078125 -2.535156 4.007812 -2.828125 3.875 -3.078125 C 3.738281 -3.328125 3.554688 -3.515625 3.328125 -3.640625 C 3.097656 -3.773438 2.847656 -3.84375 2.578125 -3.84375 C 2.304688 -3.84375 2.054688 -3.773438 1.828125 -3.640625 C 1.609375 -3.515625 1.429688 -3.328125 1.296875 -3.078125 C 1.160156 -2.835938 1.09375 -2.550781 1.09375 -2.21875 C 1.09375 -1.875 1.160156 -1.578125 1.296875 -1.328125 C 1.429688 -1.085938 1.609375 -0.898438 1.828125 -0.765625 C 2.054688 -0.628906 2.304688 -0.5625 2.578125 -0.5625 C 2.847656 -0.5625 3.097656 -0.628906 3.328125 -0.765625 C 3.554688 -0.898438 3.738281 -1.085938 3.875 -1.328125 C 4.007812 -1.578125 4.078125 -1.867188 4.078125 -2.203125 Z M 4.078125 -2.203125 "/></g></g></g><g fill="#eab308" fill-opacity="1"><g transform="translate(39.840531, 25.009815)"><g><path d="M 2.765625 -4.484375 C 3.296875 -4.484375 3.726562 -4.320312 4.0625 -4 C 4.394531 -3.675781 4.5625 -3.207031 4.5625 -2.59375 L 4.5625 0 L 3.84375 0 L 3.84375 -2.484375 C 3.84375 -2.921875 3.734375 -3.253906 3.515625 -3.484375 C 3.296875 -3.722656 2.992188 -3.84375 2.609375 -3.84375 C 2.222656 -3.84375 1.914062 -3.722656 1.6875 -3.484375 C 1.457031 -3.242188 1.34375 -2.894531 1.34375 -2.4375 L 1.34375 0 L 0.625 0 L 0.625 -4.40625 L 1.34375 -4.40625 L 1.34375 -3.78125 C 1.488281 -4 1.6875 -4.171875 1.9375 -4.296875 C 2.1875 -4.421875 2.460938 -4.484375 2.765625 -4.484375 Z M 2.765625 -4.484375 "/></g></g></g><g fill="#22c55e" fill-opacity="1"><g transform="translate(44.980281, 25.009815)"><g><path d="M 1 -5.109375 C 0.851562 -5.109375 0.734375 -5.15625 0.640625 -5.25 C 0.546875 -5.351562 0.5 -5.472656 0.5 -5.609375 C 0.5 -5.753906 0.546875 -5.875 0.640625 -5.96875 C 0.734375 -6.0625 0.851562 -6.109375 1 -6.109375 C 1.132812 -6.109375 1.25 -6.0625 1.34375 -5.96875 C 1.4375 -5.875 1.484375 -5.753906 1.484375 -5.609375 C 1.484375 -5.472656 1.4375 -5.351562 1.34375 -5.25 C 1.25 -5.15625 1.132812 -5.109375 1 -5.109375 Z M 1.34375 -4.40625 L 1.34375 0 L 0.625 0 L 0.625 -4.40625 Z M 1.34375 -4.40625 "/></g></g></g><g fill="#2563eb" fill-opacity="1"><g transform="translate(46.957109, 25.009815)"><g><path d="M 1.34375 -5.9375 L 1.34375 0 L 0.625 0 L 0.625 -5.9375 Z M 1.34375 -5.9375 "/></g></g></g><g fill="#ef4444" fill-opacity="1"><g transform="translate(48.933936, 25.009815)"><g><path d="M 0.34375 -2.21875 C 0.34375 -2.664062 0.429688 -3.054688 0.609375 -3.390625 C 0.796875 -3.734375 1.046875 -4 1.359375 -4.1875 C 1.679688 -4.375 2.039062 -4.46875 2.4375 -4.46875 C 2.820312 -4.46875 3.15625 -4.382812 3.4375 -4.21875 C 3.71875 -4.050781 3.929688 -3.84375 4.078125 -3.59375 L 4.078125 -4.40625 L 4.8125 -4.40625 L 4.8125 0 L 4.078125 0 L 4.078125 -0.8125 C 3.929688 -0.5625 3.710938 -0.347656 3.421875 -0.171875 C 3.140625 -0.00390625 2.804688 0.078125 2.421875 0.078125 C 2.035156 0.078125 1.679688 -0.015625 1.359375 -0.203125 C 1.046875 -0.398438 0.796875 -0.671875 0.609375 -1.015625 C 0.429688 -1.367188 0.34375 -1.769531 0.34375 -2.21875 Z M 4.078125 -2.203125 C 4.078125 -2.535156 4.007812 -2.828125 3.875 -3.078125 C 3.738281 -3.328125 3.554688 -3.515625 3.328125 -3.640625 C 3.097656 -3.773438 2.847656 -3.84375 2.578125 -3.84375 C 2.304688 -3.84375 2.054688 -3.773438 1.828125 -3.640625 C 1.609375 -3.515625 1.429688 -3.328125 1.296875 -3.078125 C 1.160156 -2.835938 1.09375 -2.550781 1.09375 -2.21875 C 1.09375 -1.875 1.160156 -1.578125 1.296875 -1.328125 C 1.429688 -1.085938 1.609375 -0.898438 1.828125 -0.765625 C 2.054688 -0.628906 2.304688 -0.5625 2.578125 -0.5625 C 2.847656 -0.5625 3.097656 -0.628906 3.328125 -0.765625 C 3.554688 -0.898438 3.738281 -1.085938 3.875 -1.328125 C 4.007812 -1.578125 4.078125 -1.867188 4.078125 -2.203125 Z M 4.078125 -2.203125 "/></g></g></g></svg>